# Blender 5.0.0
# www.blender.org
mtllib default.mtl
o default.001
v 0.000000 1.087938 -0.000000
v 0.462172 1.080094 -0.159138
v 0.534149 1.020694 -0.183923
v 0.563825 0.083049 -0.194140
v 0.513524 0.017049 -0.176820
v 0.467444 1.080094 0.142912
v 0.540243 1.020694 0.165169
v 0.570257 0.083049 0.174345
v 0.519382 0.017049 0.158791
v 0.294169 1.080094 0.390375
v 0.339982 1.020694 0.451171
v 0.358870 0.083049 0.476237
v 0.326854 0.017049 0.433750
v 0.008531 1.080094 0.488728
v 0.009859 1.020694 0.564841
v 0.010407 0.083049 0.596222
v 0.009479 0.017049 0.543031
v -0.280365 1.080094 0.400403
v -0.324029 1.020694 0.462762
v -0.342031 0.083049 0.488470
v -0.311517 0.017049 0.444893
v -0.462172 1.080094 0.159138
v -0.534149 1.020694 0.183922
v -0.563825 0.083049 0.194140
v -0.513524 0.017049 0.176820
v -0.467444 1.080094 -0.142912
v -0.540243 1.020694 -0.165169
v -0.570257 0.083049 -0.174345
v -0.519382 0.017049 -0.158791
v 0.000000 0.003200 -0.000000
v -0.294169 1.080094 -0.390375
v -0.339982 1.020694 -0.451171
v -0.358870 0.083049 -0.476237
v -0.326854 0.017049 -0.433750
v -0.008531 1.080094 -0.488728
v -0.009859 1.020694 -0.564842
v -0.010407 0.083049 -0.596222
v -0.009479 0.017049 -0.543031
v 0.280365 1.080094 -0.400403
v 0.324029 1.020694 -0.462762
v 0.342031 0.083049 -0.488471
v 0.311517 0.017049 -0.444893
v 0.593499 0.869371 -0.204359
v 0.600270 0.869371 0.183521
v 0.377758 0.869371 0.501301
v 0.010955 0.869371 0.627602
v -0.360032 0.869371 0.514179
v -0.593499 0.869371 0.204359
v -0.600270 0.869371 -0.183521
v -0.377758 0.869371 -0.501302
v -0.010954 0.869371 -0.627602
v 0.360032 0.869371 -0.514179
v 0.593499 0.230629 -0.204359
v 0.600270 0.230629 0.183521
v 0.377758 0.230629 0.501301
v 0.010955 0.230629 0.627602
v -0.360032 0.230629 0.514179
v -0.593499 0.230629 0.204359
v -0.600270 0.230629 -0.183521
v -0.377758 0.230629 -0.501301
v -0.010955 0.230629 -0.627602
v 0.360032 0.230629 -0.514179
vn -0.0000 -1.0000 -0.0000
vn 0.2899 -0.8629 -0.4140
vn 0.4778 -0.8629 -0.1645
vn 0.5633 0.1884 -0.8045
vn 0.4662 0.5826 -0.6658
vn 0.7685 0.5826 -0.2646
vn 0.9286 0.1884 -0.3197
vn 0.2219 0.9222 -0.3168
vn -0.0000 1.0000 -0.0000
vn 0.3657 0.9222 -0.1259
vn 0.5224 -0.4127 -0.7461
vn 0.8612 -0.4127 -0.2965
vn 0.8711 -0.4127 0.2663
vn 0.4833 -0.8629 0.1478
vn 0.3699 0.9222 0.1131
vn 0.7773 0.5826 0.2376
vn 0.9392 0.1884 0.2871
vn 0.5482 -0.4127 0.7274
vn 0.3041 -0.8629 0.4036
vn 0.2328 0.9222 0.3089
vn 0.4891 0.5826 0.6491
vn 0.5910 0.1884 0.7843
vn 0.0159 -0.4127 0.9107
vn 0.0088 -0.8629 0.5053
vn 0.0068 0.9222 0.3867
vn 0.0142 0.5826 0.8127
vn 0.0171 0.1884 0.9820
vn -0.5225 -0.4127 0.7461
vn -0.2899 -0.8629 0.4140
vn -0.2219 0.9222 0.3168
vn -0.4662 0.5826 0.6658
vn -0.5633 0.1884 0.8045
vn -0.8612 -0.4127 0.2965
vn -0.4778 -0.8629 0.1645
vn -0.3657 0.9222 0.1259
vn -0.7685 0.5826 0.2646
vn -0.9286 0.1884 0.3197
vn -0.8711 -0.4127 -0.2663
vn -0.4833 -0.8629 -0.1478
vn -0.3699 0.9222 -0.1131
vn -0.7773 0.5826 -0.2376
vn -0.9392 0.1884 -0.2871
vn -0.5482 -0.4127 -0.7274
vn -0.3041 -0.8629 -0.4036
vn -0.2328 0.9222 -0.3089
vn -0.4891 0.5826 -0.6491
vn -0.5910 0.1884 -0.7843
vn -0.0159 -0.4127 -0.9107
vn -0.0088 -0.8629 -0.5053
vn -0.0068 0.9222 -0.3867
vn -0.0142 0.5826 -0.8127
vn -0.0171 0.1884 -0.9820
vn -0.0174 -0.1025 -0.9946
vn 0.5706 -0.1025 -0.8148
vn -0.5986 -0.1025 -0.7944
vn -0.9513 -0.1025 -0.2908
vn -0.9405 -0.1025 0.3239
vn -0.5706 -0.1025 0.8148
vn 0.0174 -0.1025 0.9946
vn 0.5986 -0.1025 0.7944
vn 0.9513 -0.1025 0.2908
vn 0.9405 -0.1025 -0.3239
vt 0.000018 0.999837
vt 1.000022 0.999900
vt 0.999119 0.709636
vt 0.874364 0.999742
vt 0.874364 0.928386
vt 0.499609 0.999742
vt 0.499609 0.928386
vt 0.124855 0.999742
vt 0.124855 0.928386
vt 0.124855 0.165048
vt 0.000100 0.709636
vt 0.000100 0.290048
vt 0.499609 0.165048
vt 0.874364 0.165048
vt 0.999119 0.290048
vt 0.999119 -0.000058
vt 0.874364 -0.000058
vt 0.499609 -0.000058
vt 0.124855 -0.000058
vt 0.000100 -0.000058
s 1
usemtl Material.002
f 30/1/1 42/1/2 5/1/3
f 52/1/4 40/1/5 3/1/6 43/1/7
f 39/1/8 1/1/9 2/1/10
f 42/1/2 41/1/11 4/1/12 5/1/3
f 40/1/5 39/1/8 2/1/10 3/1/6
f 5/1/3 4/1/12 8/1/13 9/1/14
f 3/1/6 2/1/10 6/1/15 7/2/16
f 30/1/1 5/1/3 9/1/14
f 43/1/7 3/1/6 7/2/16 44/1/17
f 2/1/10 1/1/9 6/1/15
f 9/1/14 8/1/13 12/1/18 13/1/19
f 7/2/16 6/1/15 10/1/20 11/1/21
f 30/1/1 9/1/14 13/1/19
f 44/3/17 7/2/16 11/4/21 45/5/22
f 6/1/15 1/1/9 10/1/20
f 13/1/19 12/1/18 16/1/23 17/1/24
f 11/1/21 10/1/20 14/1/25 15/1/26
f 30/1/1 13/1/19 17/1/24
f 45/5/22 11/4/21 15/6/26 46/7/27
f 10/1/20 1/1/9 14/1/25
f 17/1/24 16/1/23 20/1/28 21/1/29
f 15/1/26 14/1/25 18/1/30 19/1/31
f 30/1/1 17/1/24 21/1/29
f 46/7/27 15/6/26 19/8/31 47/9/32
f 14/1/25 1/1/9 18/1/30
f 21/1/29 20/1/28 24/1/33 25/1/34
f 19/1/31 18/1/30 22/1/35 23/1/36
f 30/1/1 21/1/29 25/1/34
f 47/1/32 19/1/31 23/1/36 48/1/37
f 18/1/30 1/1/9 22/1/35
f 25/1/34 24/1/33 28/1/38 29/1/39
f 23/1/36 22/1/35 26/1/40 27/1/41
f 30/1/1 25/1/34 29/1/39
f 48/1/37 23/1/36 27/1/41 49/1/42
f 22/1/35 1/1/9 26/1/40
f 29/1/39 28/1/38 33/1/43 34/1/44
f 27/1/41 26/1/40 31/1/45 32/1/46
f 30/1/1 29/1/39 34/1/44
f 49/1/42 27/1/41 32/1/46 50/1/47
f 26/1/40 1/1/9 31/1/45
f 34/1/44 33/1/43 37/1/48 38/1/49
f 32/1/46 31/1/45 35/1/50 36/1/51
f 30/1/1 34/1/44 38/1/49
f 50/1/47 32/1/46 36/1/51 51/1/52
f 31/1/45 1/1/9 35/1/50
f 38/1/49 37/1/48 41/1/11 42/1/2
f 36/1/51 35/1/50 39/1/8 40/1/5
f 30/1/1 38/1/49 42/1/2
f 51/1/52 36/1/51 40/1/5 52/1/4
f 35/1/50 1/1/9 39/1/8
f 61/1/53 51/1/52 52/1/4 62/1/54
f 60/1/55 50/1/47 51/1/52 61/1/53
f 59/1/56 49/1/42 50/1/47 60/1/55
f 58/1/57 48/1/37 49/1/42 59/1/56
f 57/10/58 47/9/32 48/11/37 58/12/57
f 56/13/59 46/7/27 47/9/32 57/10/58
f 55/14/60 45/5/22 46/7/27 56/13/59
f 54/15/61 44/3/17 45/5/22 55/14/60
f 53/1/62 43/1/7 44/1/17 54/1/61
f 62/1/54 52/1/4 43/1/7 53/1/62
f 41/1/11 62/1/54 53/1/62 4/1/12
f 4/1/12 53/1/62 54/1/61 8/1/13
f 8/16/13 54/15/61 55/14/60 12/17/18
f 12/17/18 55/14/60 56/13/59 16/18/23
f 16/18/23 56/13/59 57/10/58 20/19/28
f 20/19/28 57/10/58 58/12/57 24/20/33
f 24/1/33 58/1/57 59/1/56 28/1/38
f 28/1/38 59/1/56 60/1/55 33/1/43
f 33/1/43 60/1/55 61/1/53 37/1/48
f 37/1/48 61/1/53 62/1/54 41/1/11
