# Blender 5.0.0
# www.blender.org
mtllib leftarm.mtl
o Cube
v -2.000000 -2.000000 -0.550000
v -2.000000 0.000000 -0.550000
v -1.000000 -2.000000 -0.550000
v -1.000000 -0.000000 -0.550000
v -2.000000 -2.000000 0.450000
v -2.000000 0.000000 0.450000
v -1.000000 -2.000000 0.450000
v -1.000000 -0.000000 0.450000
vn -0.0000 -0.0000 -1.0000
vn 1.0000 -0.0000 -0.0000
vn -0.0000 -0.0000 1.0000
vn -1.0000 -0.0000 -0.0000
vn -0.0000 -1.0000 -0.0000
vn -0.0000 1.0000 -0.0000
vt 0.254199 0.862924
vt 0.254199 0.636583
vt 0.147429 0.636583
vt 0.147429 0.862924
vt 0.141587 0.863356
vt 0.141587 0.634178
vt 0.031588 0.635417
vt 0.031588 0.862117
vt 0.480952 0.863227
vt 0.480952 0.635192
vt 0.371429 0.635192
vt 0.371429 0.863227
vt 0.368952 0.862326
vt 0.368952 0.634669
vt 0.259343 0.635881
vt 0.259465 0.862104
vt 0.479540 0.981323
vt 0.479540 0.868445
vt 0.371824 0.868445
vt 0.371824 0.981323
vt 0.371438 0.630754
vt 0.371438 0.517936
vt 0.479661 0.517936
vt 0.479661 0.630754
s 1
usemtl Material
f 1/1/1 2/2/1 4/3/1 3/4/1
f 3/5/2 4/6/2 8/7/2 7/8/2
f 7/9/3 8/10/3 6/11/3 5/12/3
f 5/13/4 6/14/4 2/15/4 1/16/4
f 3/17/5 7/18/5 5/19/5 1/20/5
f 8/21/6 4/22/6 2/23/6 6/24/6
