# Blender 5.0.0
# www.blender.org
mtllib leftarm.mtl
o Cube
v -2.050000 -2.000000 0.500000
v -2.050000 0.000000 0.500000
v -2.050000 -2.000000 -0.500000
v -2.050000 0.000000 -0.500000
v -1.050000 -2.000000 0.500000
v -1.050000 0.000000 0.500000
v -1.050000 -2.000000 -0.500000
v -1.050000 0.000000 -0.500000
vn -1.0000 -0.0000 -0.0000
vn -0.0000 -0.0000 -1.0000
vn 1.0000 -0.0000 -0.0000
vn -0.0000 -0.0000 1.0000
vn -0.0000 -1.0000 -0.0000
vn -0.0000 1.0000 -0.0000
vt 0.035714 0.836167
vt 0.035714 0.620800
vt 0.145238 0.620800
vt 0.145238 0.836167
vt 0.258333 0.621965
vt 0.258333 0.835003
vt 0.371429 0.836167
vt 0.371429 0.619636
vt 0.480952 0.619636
vt 0.480952 0.836167
vt 0.258333 0.621981
vt 0.367942 0.623115
vt 0.367820 0.834795
vt 0.371429 0.945597
vt 0.480952 0.945597
vt 0.371429 0.512535
vt 0.480952 0.512535
s 0
usemtl Material.001
f 1/1/1 2/2/1 4/3/1 3/4/1
f 3/4/2 4/3/2 8/5/2 7/6/2
f 7/7/3 8/8/3 6/9/3 5/10/3
f 5/6/4 6/11/4 2/12/4 1/13/4
f 3/14/5 7/7/5 5/10/5 1/15/5
f 8/8/6 4/16/6 2/17/6 6/9/6
