# Blender 5.0.0
# www.blender.org
mtllib rightleg.mtl
o Cube
v 0.000000 -4.000000 0.500000
v 0.000000 -2.000000 0.500000
v 0.000000 -4.000000 -0.500000
v 0.000000 -2.000000 -0.500000
v 1.000000 -4.000000 0.500000
v 1.000000 -2.000000 0.500000
v 1.000000 -4.000000 -0.500000
v 1.000000 -2.000000 -0.500000
vn -1.0000 -0.0000 -0.0000
vn -0.0000 -0.0000 -1.0000
vn 1.0000 -0.0000 -0.0000
vn -0.0000 -0.0000 1.0000
vn -0.0000 -1.0000 -0.0000
vn -0.0000 1.0000 -0.0000
vt 0.974394 0.863568
vt 0.974394 0.635279
vt 0.864871 0.635279
vt 0.864871 0.863568
vt 0.861160 0.864029
vt 0.861160 0.635201
vt 0.752368 0.636438
vt 0.752368 0.862792
vt 0.748584 0.864201
vt 0.748584 0.635443
vt 0.639060 0.635443
vt 0.639060 0.864201
vt 0.635983 0.863033
vt 0.635983 0.635767
vt 0.526375 0.636978
vt 0.526497 0.862810
vt 0.526059 0.867905
vt 0.526059 0.982582
vt 0.635583 0.982582
vt 0.635583 0.867905
vt 0.526539 0.517058
vt 0.526539 0.630938
vt 0.636063 0.630938
vt 0.636063 0.517058
s 1
usemtl Material
f 1/1/1 2/2/1 4/3/1 3/4/1
f 3/5/2 4/6/2 8/7/2 7/8/2
f 7/9/3 8/10/3 6/11/3 5/12/3
f 5/13/4 6/14/4 2/15/4 1/16/4
f 3/17/5 7/18/5 5/19/5 1/20/5
f 8/21/6 4/22/6 2/23/6 6/24/6
