# Blender 5.0.0
# www.blender.org
o Cube
v 1.000000 -2.000000 0.500000
v 1.000000 0.000000 0.500000
v 1.000000 -2.000000 -0.500000
v 1.000000 -0.000000 -0.500000
v 2.000000 -2.000000 0.500000
v 2.000000 0.000000 0.500000
v 2.000000 -2.000000 -0.500000
v 2.000000 -0.000000 -0.500000
vn -1.0000 -0.0000 -0.0000
vn -0.0000 -0.0000 -1.0000
vn 1.0000 -0.0000 -0.0000
vn -0.0000 -0.0000 1.0000
vn -0.0000 -1.0000 -0.0000
vn -0.0000 1.0000 -0.0000
vt 0.973521 0.137917
vt 0.973521 0.364023
vt 0.865189 0.364023
vt 0.865189 0.137917
vt 0.861355 0.136450
vt 0.861355 0.364513
vt 0.752783 0.364324
vt 0.752783 0.136638
vt 0.748753 0.136896
vt 0.748753 0.364254
vt 0.639230 0.364254
vt 0.639230 0.136896
vt 0.635624 0.136200
vt 0.635624 0.365722
vt 0.527294 0.364500
vt 0.527415 0.136424
vt 0.635472 0.018543
vt 0.635472 0.131256
vt 0.525949 0.131256
vt 0.525949 0.018543
vt 0.634951 0.482395
vt 0.526470 0.482395
vt 0.526470 0.367778
vt 0.634951 0.367778
s 1
f 1/1/1 2/2/1 4/3/1 3/4/1
f 3/5/2 4/6/2 8/7/2 7/8/2
f 7/9/3 8/10/3 6/11/3 5/12/3
f 5/13/4 6/14/4 2/15/4 1/16/4
f 3/17/5 7/18/5 5/19/5 1/20/5
f 8/21/6 4/22/6 2/23/6 6/24/6
