# Blender 5.0.0
# www.blender.org
mtllib torso.mtl
o Cube
v -1.000000 -2.000000 0.500000
v -1.000000 0.000000 0.500000
v -1.000000 -2.000000 -0.500000
v -1.000000 0.000000 -0.500000
v 1.000000 -2.000000 0.500000
v 1.000000 0.000000 0.500000
v 1.000000 -2.000000 -0.500000
v 1.000000 0.000000 -0.500000
vn -1.0000 -0.0000 -0.0000
vn -0.0000 -0.0000 -1.0000
vn 1.0000 -0.0000 -0.0000
vn -0.0000 -0.0000 1.0000
vn -0.0000 -1.0000 -0.0000
vn -0.0000 1.0000 -0.0000
vt 0.726496 0.361360
vt 0.726496 0.132379
vt 0.618804 0.132379
vt 0.617094 0.361360
vt 0.948718 0.361360
vt 0.948718 0.132379
vt 0.729915 0.132379
vt 0.729915 0.361360
vt 0.391209 0.361280
vt 0.391209 0.132379
vt 0.282051 0.132379
vt 0.282051 0.361280
vt 0.613675 0.361360
vt 0.613675 0.132379
vt 0.394872 0.132379
vt 0.394872 0.361360
vt 0.613675 0.364937
vt 0.396581 0.364937
vt 0.396581 0.477639
vt 0.613675 0.477639
vt 0.611966 0.016100
vt 0.396581 0.016100
vt 0.396581 0.128801
vt 0.611966 0.128801
s 0
usemtl Material
f 1/1/1 2/2/1 4/3/1 3/4/1
f 3/5/2 4/6/2 8/7/2 7/8/2
f 7/9/3 8/10/3 6/11/3 5/12/3
f 5/13/4 6/14/4 2/15/4 1/16/4
f 3/17/5 7/18/5 5/19/5 1/20/5
f 8/21/6 4/22/6 2/23/6 6/24/6
